<svg xmlns="http://www.w3.org/2000/svg" viewBox="0 0 100 100" width="100" height="100">
  <!-- Background shield -->
  <path d="M50 5 L90 20 L90 50 C90 75 70 90 50 95 C30 90 10 75 10 50 L10 20 Z"
        fill="#0969da" stroke="none"/>

  <!-- Inner shield highlight -->
  <path d="M50 12 L82 24 L82 50 C82 70 65 82 50 87 C35 82 18 70 18 50 L18 24 Z"
        fill="#58a6ff" stroke="none"/>

  <!-- Lock body -->
  <rect x="35" y="45" width="30" height="25" rx="3" fill="#ffffff"/>

  <!-- Lock shackle -->
  <path d="M40 45 L40 35 C40 25 60 25 60 35 L60 45"
        fill="none" stroke="#ffffff" stroke-width="6" stroke-linecap="round"/>

  <!-- Keyhole -->
  <circle cx="50" cy="55" r="4" fill="#0969da"/>
  <rect x="48" y="55" width="4" height="8" fill="#0969da"/>
</svg>
