<?xml version="1.0" standalone="no"?>
<!DOCTYPE svg PUBLIC "-//W3C//DTD SVG 20010904//EN"
 "http://www.w3.org/TR/2001/REC-SVG-20010904/DTD/svg10.dtd">
<svg version="1.0" xmlns="http://www.w3.org/2000/svg"
 width="512" height="512" viewBox="0 0 500.000000 500.000000"
 preserveAspectRatio="xMidYMid meet">
<metadata>
Created by potrace 1.16, written by Peter Selinger 2001-2019
</metadata>
<g transform="translate(0.000000,500.000000) scale(0.100000,-0.100000)"
fill="#004F7A" stroke="none">
<path d="M2375 4777 c-71 -24 -128 -58 -220 -131 -212 -170 -408 -285 -635
-374 -170 -66 -269 -88 -449 -101 -69 -6 -141 -15 -160 -22 -149 -53 -256
-180 -281 -335 -14 -81 -13 -1528 1 -1691 33 -402 163 -746 390 -1030 247
-307 587 -550 1049 -748 396 -169 435 -172 750 -50 97 38 211 89 323 146 672
338 1062 802 1191 1416 42 202 48 361 44 1203 -4 831 -2 795 -55 896 -34 64
-111 133 -189 171 -63 30 -83 34 -200 43 -71 5 -160 16 -199 24 -116 25 -283
84 -413 147 -110 53 -269 142 -282 159 -3 3 -30 22 -60 42 -30 20 -99 72 -152
115 -128 103 -183 125 -313 130 -64 2 -114 -2 -140 -10z m157 -419 c7 -7 29
-25 48 -39 19 -15 49 -39 65 -53 17 -14 68 -52 115 -84 366 -250 757 -403
1100 -430 l95 -7 0 -780 c0 -820 -3 -898 -46 -1070 -100 -401 -333 -702 -741
-960 -142 -90 -438 -229 -614 -288 l-62 -20 -63 26 c-35 14 -95 38 -134 52
-116 44 -384 180 -485 246 -168 109 -239 166 -349 279 -180 184 -307 408 -366
649 -48 193 -50 236 -50 1076 l0 790 125 11 c187 18 361 63 550 143 95 40 208
92 244 112 10 6 33 19 50 29 143 81 286 177 391 264 81 67 103 76 127 54z
M1860 3521 c-70 -29 -129 -86 -164 -160 l-31 -66 -5 -318 -5 -319 -29 -23
c-16 -13 -49 -26 -72 -30 -74 -11 -117 -93 -82 -158 17 -33 38 -45 88 -53 31
-5 53 -16 72 -37 l28 -29 0 -272 c0 -359 9 -406 90 -498 59 -67 115 -90 240
-98 129 -8 164 2 186 56 20 47 12 93 -22 125 -22 21 -37 24 -112 27 -93 3
-127 14 -145 47 -8 13 -14 121 -17 335 -5 302 -6 317 -28 365 -12 27 -30 57
-39 67 -15 17 -15 19 0 36 9 10 27 40 39 67 22 48 23 64 28 367 l5 318 28 27
c25 26 36 28 122 33 81 5 98 9 119 29 46 43 44 115 -5 160 -20 19 -34 21 -133
20 -83 0 -122 -5 -156 -18z M2847 3512 c-37 -39 -44 -88 -17 -130 26 -42 54
-52 145 -52 68 0 77 -2 109 -30 l35 -31 3 -317 c3 -306 4 -319 26 -367 12 -27
30 -57 39 -67 15 -17 15 -19 0 -36 -9 -10 -27 -40 -39 -67 -22 -48 -23 -61
-26 -366 l-3 -316 -31 -32 c-29 -30 -34 -31 -112 -31 -94 0 -135 -18 -156 -69
-18 -45 1 -106 40 -126 36 -18 194 -20 254 -3 87 25 171 102 203 187 14 38 18
99 22 364 l6 319 27 23 c14 12 46 25 71 29 65 10 97 45 97 106 0 58 -26 85
-101 105 -98 26 -93 10 -100 373 -6 351 -9 368 -74 447 -19 23 -58 58 -87 76
-51 33 -55 34 -178 37 l-125 4 -28 -30z"/>
</g>
</svg>
